# xmcd CD database file
#
# Track frame offsets:
#	150
#	17670
#	31400
#	42938
#	63795
#	76045
#	89053
#	108245
#	119298
#	133985
#	148473
#	177860
#	215130
#	243155
#	272070
#	307922
#	324897
#
# Disc length: 4522 seconds
#
# Revision: 0
# Processed by: cddbd v1.5.2PL0 Copyright (c) Steve Scherf et al.
# Submitted via: CDex 1.83
#
DISCID=ec11a811
DTITLE=Duke Ellington - Blue Rose Black Brown and Beige
DYEAR=1956
DGENRE=Jazz
TTITLE0=Hay, Baby
TTITLE1=Sophisticated Lady
TTITLE2=Me And You
TTITLE3=Passion Flower
TTITLE4=I Let A Song Go Out of My Heart
TTITLE5=It Don't Mean A Thing (If It Ain't Got That Swing)
TTITLE6=Grievin'
TTITLE7=Blue Rose
TTITLE8=I'm Checking Out
TTITLE9=I Got It Bad (And That Ain't Good)
TTITLE10=Mood Indigo
TTITLE11=Part I
TTITLE12=Part II
TTITLE13=Part III (Light)
TTITLE14=Part IV (Come Sunday)
TTITLE15=Parrt V (Come Sunday)
TTITLE16=Part VI (23rd Psalm)
EXTD=YEAR: 1956
EXTT0=
EXTT1=
EXTT2=
EXTT3=
EXTT4=
EXTT5=
EXTT6=
EXTT7=
EXTT8=
EXTT9=
EXTT10=
EXTT11=
EXTT12=
EXTT13=
EXTT14=
EXTT15=
EXTT16=
PLAYORDER=
